<mxfile host="app.diagrams.net" modified="2020-08-06T21:30:06.504Z" agent="5.0 (Macintosh; Intel Mac OS X 10_15_6) AppleWebKit/537.36 (KHTML, like Gecko) Chrome/84.0.4147.105 Safari/537.36" etag="VUAqqhf_zGSmX1ObLw1C" version="13.6.0" type="github">
  <diagram id="2psovUB2jpPVWC_vRX2K" name="Page-1">
    <mxGraphModel dx="2148" dy="843" grid="1" gridSize="10" guides="1" tooltips="1" connect="1" arrows="1" fold="1" page="1" pageScale="1" pageWidth="850" pageHeight="1100" math="0" shadow="0">
      <root>
        <mxCell id="0" />
        <mxCell id="1" parent="0" />
        <mxCell id="urs390feVCHofEI1lAhq-10" style="edgeStyle=orthogonalEdgeStyle;rounded=1;orthogonalLoop=1;jettySize=auto;html=1;entryX=0;entryY=0.5;entryDx=0;entryDy=0;strokeWidth=2;" edge="1" parent="1" source="urs390feVCHofEI1lAhq-2" target="urs390feVCHofEI1lAhq-8">
          <mxGeometry relative="1" as="geometry" />
        </mxCell>
        <mxCell id="urs390feVCHofEI1lAhq-17" style="edgeStyle=orthogonalEdgeStyle;rounded=1;orthogonalLoop=1;jettySize=auto;html=1;exitX=1;exitY=0.5;exitDx=0;exitDy=0;entryX=0;entryY=0.25;entryDx=0;entryDy=0;strokeWidth=2;" edge="1" parent="1" source="urs390feVCHofEI1lAhq-2" target="urs390feVCHofEI1lAhq-15">
          <mxGeometry relative="1" as="geometry" />
        </mxCell>
        <mxCell id="urs390feVCHofEI1lAhq-2" value="&lt;h1&gt;POST todos/&lt;/h1&gt;&lt;p&gt;Processes requests and creates the Todo using the data provided.&lt;/p&gt;&lt;p&gt;&lt;br&gt;&lt;/p&gt;" style="text;html=1;spacing=5;spacingTop=-20;whiteSpace=wrap;overflow=hidden;rounded=0;fillColor=#ffffff;strokeColor=#000000;" vertex="1" parent="1">
          <mxGeometry x="-10" y="70" width="190" height="140" as="geometry" />
        </mxCell>
        <mxCell id="urs390feVCHofEI1lAhq-5" value="" style="endArrow=classic;html=1;entryX=0.5;entryY=0;entryDx=0;entryDy=0;" edge="1" parent="1" target="urs390feVCHofEI1lAhq-2">
          <mxGeometry width="50" height="50" relative="1" as="geometry">
            <mxPoint x="85" y="20" as="sourcePoint" />
            <mxPoint x="320" y="210" as="targetPoint" />
          </mxGeometry>
        </mxCell>
        <mxCell id="urs390feVCHofEI1lAhq-6" value="Request" style="text;html=1;strokeColor=none;fillColor=none;align=center;verticalAlign=middle;whiteSpace=wrap;rounded=0;" vertex="1" parent="1">
          <mxGeometry x="57.5" width="55" height="20" as="geometry" />
        </mxCell>
        <mxCell id="urs390feVCHofEI1lAhq-21" style="edgeStyle=orthogonalEdgeStyle;rounded=1;orthogonalLoop=1;jettySize=auto;html=1;entryX=0;entryY=0.5;entryDx=0;entryDy=0;strokeWidth=2;strokeColor=#B3B3B3;" edge="1" parent="1" source="urs390feVCHofEI1lAhq-8" target="urs390feVCHofEI1lAhq-20">
          <mxGeometry relative="1" as="geometry" />
        </mxCell>
        <mxCell id="urs390feVCHofEI1lAhq-8" value="" style="shape=image;verticalLabelPosition=bottom;labelBackgroundColor=#ffffff;verticalAlign=top;aspect=fixed;imageAspect=0;image=https://upload.wikimedia.org/wikipedia/commons/thumb/0/05/Apache_kafka.svg/1200px-Apache_kafka.svg.png;" vertex="1" parent="1">
          <mxGeometry x="269.46" y="20" width="43.08" height="70" as="geometry" />
        </mxCell>
        <mxCell id="urs390feVCHofEI1lAhq-11" value="Todo feed" style="text;html=1;strokeColor=none;fillColor=none;align=center;verticalAlign=middle;whiteSpace=wrap;rounded=0;" vertex="1" parent="1">
          <mxGeometry x="256" y="90" width="78" height="20" as="geometry" />
        </mxCell>
        <mxCell id="urs390feVCHofEI1lAhq-15" value="" style="shape=image;verticalLabelPosition=bottom;labelBackgroundColor=#ffffff;verticalAlign=top;aspect=fixed;imageAspect=0;image=https://upload.wikimedia.org/wikipedia/commons/thumb/5/5e/Cassandra_logo.svg/1200px-Cassandra_logo.svg.png;" vertex="1" parent="1">
          <mxGeometry x="269.46" y="200" width="69.88" height="46.77" as="geometry" />
        </mxCell>
        <mxCell id="urs390feVCHofEI1lAhq-16" value="Todos_v1" style="text;html=1;strokeColor=none;fillColor=none;align=center;verticalAlign=middle;whiteSpace=wrap;rounded=0;" vertex="1" parent="1">
          <mxGeometry x="275" y="246.77" width="40" height="20" as="geometry" />
        </mxCell>
        <mxCell id="urs390feVCHofEI1lAhq-20" value="&lt;h1&gt;Todos Service&lt;/h1&gt;&lt;p&gt;Lorem ipsum dolor sit amet,&amp;nbsp;&lt;/p&gt;" style="text;html=1;spacing=5;spacingTop=-20;whiteSpace=wrap;overflow=hidden;rounded=0;fillColor=#ffffff;strokeColor=#000000;" vertex="1" parent="1">
          <mxGeometry x="480" y="70" width="190" height="100" as="geometry" />
        </mxCell>
      </root>
    </mxGraphModel>
  </diagram>
</mxfile>
